<?xml version="1.0" encoding="UTF-8" standalone="no"?>
<!DOCTYPE svg PUBLIC "-//W3C//DTD SVG 1.1//EN" "http://www.w3.org/Graphics/SVG/1.1/DTD/svg11.dtd">
<svg xmlns="http://www.w3.org/2000/svg" version="1.1" viewBox="0.00 0.00 381.00 209.00">
<path fill="#3ffdca" d="
  M 175.48 101.01
  Q 178.96 101.22 183.16 101.07
  C 185.05 101.01 186.54 102.45 185.83 104.35
  Q 185.64 104.85 185.14 105.05
  Q 181.37 106.52 177.30 105.22
  A 1.88 1.87 8.8 0 0 174.85 107.01
  L 174.94 133.45
  A 0.75 0.74 16.2 0 0 175.29 134.08
  L 175.81 134.42
  Q 175.88 134.47 175.88 134.55
  Q 175.84 138.06 175.84 141.08
  Q 175.84 142.43 176.59 145.83
  Q 177.13 148.26 176.83 150.69
  Q 176.47 153.66 173.59 152.85
  Q 173.01 152.68 172.78 152.62
  A 3.69 3.68 10.4 0 1 170.11 148.75
  Q 170.37 145.79 169.29 143.39
  Q 169.00 142.74 169.08 142.04
  Q 169.46 138.73 168.62 136.27
  Q 167.93 134.25 168.09 132.18
  Q 168.36 128.86 167.68 125.95
  Q 167.06 123.26 167.09 120.12
  Q 167.17 113.49 167.00 106.83
  Q 166.98 106.19 166.35 106.12
  C 164.90 105.95 163.34 105.88 161.91 106.13
  C 156.62 107.09 151.38 106.75 146.04 107.17
  Q 135.23 108.03 124.48 107.82
  Q 121.06 107.76 119.51 110.33
  Q 118.00 112.86 116.74 116.24
  Q 115.54 119.45 113.87 122.35
  Q 111.36 126.70 108.76 131.48
  Q 106.28 136.05 103.44 140.35
  Q 99.33 146.57 94.48 151.91
  Q 92.10 154.54 89.97 156.99
  Q 87.72 159.57 84.92 161.82
  Q 81.37 164.66 77.84 167.24
  Q 76.01 168.58 69.70 171.68
  Q 65.64 173.67 61.54 174.98
  Q 48.28 179.18 36.53 178.79
  Q 32.29 178.66 27.81 177.90
  Q 20.68 176.69 13.86 173.04
  Q 10.07 171.01 7.10 167.60
  Q 3.74 163.74 2.61 159.68
  Q 1.74 156.55 1.92 151.33
  Q 2.06 146.92 3.35 143.68
  Q 6.24 136.37 10.66 130.99
  Q 11.94 129.42 13.70 128.17
  Q 23.45 121.23 32.36 117.49
  Q 39.07 114.67 54.74 111.22
  Q 71.02 107.64 84.84 106.21
  Q 88.45 105.84 91.08 105.44
  Q 93.41 105.08 95.59 105.17
  Q 98.14 105.28 100.35 104.87
  Q 103.35 104.32 105.84 104.17
  Q 108.47 104.02 111.31 104.15
  C 113.97 104.28 114.35 103.48 115.82 101.63
  Q 116.39 100.92 116.80 100.05
  Q 121.83 89.49 126.86 78.87
  Q 129.80 72.65 137.42 57.90
  Q 145.97 41.35 157.01 26.38
  Q 159.58 22.91 162.54 19.55
  C 167.98 13.38 172.89 8.30 179.88 2.91
  Q 180.80 2.20 181.84 1.91
  C 182.87 1.62 183.70 1.06 184.81 1.08
  C 188.90 1.16 189.97 3.88 188.58 7.46
  Q 188.12 8.66 187.86 9.85
  Q 185.99 18.55 184.09 24.93
  Q 183.84 25.78 183.85 26.68
  Q 183.87 27.17 183.66 27.61
  Q 182.63 29.75 182.26 32.75
  Q 181.89 35.71 180.17 43.18
  C 179.78 44.91 180.09 46.52 179.49 48.19
  C 178.80 50.07 179.11 52.05 178.56 53.97
  Q 177.91 56.22 177.91 58.70
  Q 177.90 60.67 177.36 62.74
  Q 176.55 65.82 176.93 69.30
  Q 176.99 69.78 176.77 70.20
  C 175.30 73.10 175.82 79.73 175.91 83.05
  Q 175.93 83.58 175.55 83.95
  L 175.24 84.27
  Q 175.03 84.48 175.02 84.77
  L 174.91 90.76
  Q 174.90 91.44 175.44 91.04
  Q 176.66 90.14 177.68 88.93
  C 179.33 87.01 182.20 85.92 184.47 84.88
  Q 185.98 84.19 187.73 83.68
  Q 189.44 83.19 191.14 82.55
  Q 195.60 80.88 204.32 80.39
  C 207.55 80.20 210.63 81.32 213.91 81.11
  Q 214.40 81.08 214.81 81.36
  Q 216.15 82.28 217.81 82.11
  Q 218.38 82.05 218.83 82.40
  Q 220.32 83.55 222.22 83.92
  Q 223.50 84.17 224.61 85.09
  Q 227.50 87.50 230.40 90.04
  Q 230.83 90.42 230.92 91.00
  Q 231.19 92.80 232.56 94.05
  Q 232.91 94.36 232.91 94.83
  L 232.92 104.18
  Q 232.92 104.61 232.61 104.90
  Q 231.60 105.84 231.91 107.25
  A 0.54 0.53 -18.5 0 1 231.60 107.86
  Q 230.96 108.14 230.94 108.84
  Q 230.92 109.44 230.50 109.86
  Q 228.83 111.56 227.62 113.38
  Q 226.65 114.85 224.49 116.19
  Q 221.27 118.18 218.07 120.61
  Q 216.10 122.12 213.74 122.87
  Q 208.08 124.67 202.53 126.19
  A 1.21 1.19 16.9 0 0 202.05 126.44
  C 201.08 127.24 199.93 126.72 198.80 126.90
  Q 197.82 127.06 198.49 127.78
  Q 199.00 128.33 199.60 128.15
  Q 200.25 127.96 200.75 128.43
  Q 202.54 130.12 205.14 130.09
  Q 205.59 130.09 205.90 130.40
  L 206.24 130.73
  Q 206.66 131.16 207.26 131.18
  Q 207.79 131.20 208.06 131.64
  Q 208.29 132.01 208.67 132.19
  Q 213.59 134.47 218.08 136.87
  Q 218.44 137.06 218.85 137.08
  Q 219.32 137.11 219.72 137.36
  L 228.38 142.80
  Q 229.19 143.31 228.51 143.99
  L 227.90 144.60
  Q 227.38 145.12 226.73 144.78
  Q 220.78 141.71 214.64 138.46
  Q 213.91 138.08 213.11 137.95
  Q 212.57 137.87 212.10 137.58
  Q 208.69 135.49 205.51 134.07
  Q 204.99 133.83 204.42 133.90
  A 1.34 1.32 62.6 0 1 203.37 133.56
  Q 201.63 132.00 199.31 131.91
  Q 198.82 131.89 198.44 131.59
  Q 196.69 130.21 194.48 129.75
  Q 193.88 129.63 193.88 130.24
  L 193.88 140.37
  Q 193.88 140.72 193.57 140.87
  Q 193.46 140.93 193.32 140.93
  A 0.30 0.30 0.0 0 0 193.03 141.23
  L 192.85 149.97
  Q 192.84 150.47 192.49 150.82
  L 190.73 152.64
  A 0.93 0.93 0.0 0 1 189.43 152.67
  L 187.54 150.91
  Q 187.17 150.56 187.15 150.05
  L 186.98 144.73
  Q 186.97 144.22 186.61 143.86
  L 186.40 143.66
  Q 186.10 143.36 186.11 142.93
  Q 186.15 135.70 185.94 128.88
  Q 185.94 128.80 185.36 124.20
  Q 184.93 120.77 186.33 117.63
  Q 186.56 117.12 187.12 117.12
  L 188.24 117.12
  Q 188.86 117.12 188.89 117.74
  L 189.09 121.77
  Q 189.10 121.95 189.29 121.95
  L 189.55 121.93
  A 0.37 0.36 -90.0 0 0 189.90 121.57
  Q 190.10 114.28 189.94 106.84
  C 189.91 105.47 189.11 104.42 189.11 103.14
  Q 189.14 95.65 189.11 88.54
  A 0.42 0.42 0.0 0 1 189.53 88.12
  L 192.47 88.12
  Q 192.89 88.12 192.88 88.54
  C 192.85 89.76 193.09 90.97 192.98 92.15
  Q 192.91 92.87 193.51 93.17
  Q 193.88 93.36 193.88 93.77
  L 193.88 123.49
  Q 193.88 123.99 194.37 124.06
  Q 197.49 124.49 199.93 123.58
  Q 201.27 123.08 202.73 123.03
  Q 204.28 122.97 205.83 122.48
  C 213.85 119.96 220.93 116.19 225.44 109.15
  Q 225.61 108.88 225.85 108.68
  Q 226.11 108.46 226.08 108.13
  Q 226.04 107.63 226.42 107.31
  C 228.79 105.27 228.07 101.47 228.19 98.67
  Q 228.31 96.16 227.20 93.90
  Q 223.57 86.52 215.18 84.93
  Q 213.95 84.70 212.96 84.31
  C 210.49 83.33 207.68 84.24 205.06 83.61
  Q 204.06 83.37 203.02 83.82
  A 1.94 1.89 -52.0 0 1 202.01 83.96
  Q 195.80 83.08 188.23 86.82
  Q 183.20 89.31 180.11 91.48
  C 179.06 92.22 178.95 93.48 178.14 94.42
  Q 177.72 94.91 177.86 95.53
  Q 177.97 96.02 177.71 96.46
  Q 177.35 97.03 176.68 96.94
  Q 176.05 96.85 175.45 96.98
  Q 174.88 97.11 174.88 97.70
  L 174.88 100.37
  Q 174.88 100.97 175.48 101.01
  Z
  M 169.92 20.74
  C 167.67 23.68 165.18 26.27 162.82 29.00
  Q 161.88 30.08 161.18 31.39
  Q 160.62 32.45 159.66 33.88
  Q 151.51 46.06 145.15 58.35
  Q 143.64 61.25 141.98 64.07
  Q 139.79 67.80 137.52 73.20
  Q 134.45 80.53 128.97 90.66
  Q 126.28 95.63 123.93 101.17
  Q 123.11 103.10 125.20 103.12
  Q 132.42 103.20 140.01 102.96
  C 141.57 102.91 142.76 102.07 144.38 102.10
  Q 151.01 102.21 157.57 101.95
  Q 159.00 101.90 160.39 101.41
  Q 161.92 100.87 163.67 101.15
  C 165.27 101.41 167.05 100.65 167.09 98.84
  Q 167.17 95.06 167.09 90.87
  Q 167.07 89.28 167.57 87.74
  Q 168.20 85.85 168.10 83.74
  Q 167.93 79.96 168.41 76.20
  Q 168.85 72.78 169.16 69.28
  Q 171.42 43.87 178.01 19.22
  C 178.64 16.86 179.39 15.06 179.10 12.67
  Q 178.96 11.45 178.02 12.25
  Q 173.42 16.17 169.92 20.74
  Z
  M 101.68 129.66
  Q 102.17 129.35 102.42 128.77
  Q 104.80 123.17 108.08 117.89
  Q 109.53 115.56 110.68 112.88
  Q 111.37 111.29 111.10 109.56
  Q 111.00 108.94 110.38 108.95
  Q 108.55 108.95 106.62 109.27
  Q 104.74 109.57 102.74 109.72
  Q 84.87 111.02 69.11 113.87
  Q 61.32 115.28 52.74 117.10
  Q 38.86 120.05 27.36 126.26
  Q 22.03 129.14 17.01 134.25
  Q 12.92 138.43 10.86 143.64
  Q 9.91 146.05 9.92 148.31
  Q 9.93 150.31 9.41 152.35
  C 8.97 154.07 9.68 155.60 9.81 157.29
  C 10.06 160.60 12.12 164.08 14.50 166.17
  Q 17.43 168.73 21.43 170.88
  Q 23.20 171.84 25.20 172.22
  C 26.92 172.55 29.20 173.52 30.88 173.35
  C 32.34 173.20 33.60 173.93 35.01 173.95
  Q 52.83 174.29 68.23 166.04
  Q 68.50 165.90 68.80 165.92
  Q 69.31 165.97 69.65 165.59
  C 70.52 164.64 71.50 164.54 72.48 163.69
  Q 75.39 161.16 78.37 158.68
  Q 83.39 154.50 89.37 147.82
  C 90.81 146.21 91.55 144.20 92.97 142.69
  Q 94.55 140.98 95.72 139.06
  Q 98.44 134.55 101.32 130.01
  A 1.10 1.05 -87.9 0 1 101.68 129.66
  Z"
/>
<path fill="#3ffdca" d="
  M 298.31 122.95
  A 1.32 1.30 47.7 0 0 299.79 123.03
  Q 305.35 119.60 308.70 125.75
  A 2.65 2.65 0.0 0 0 309.81 126.83
  C 312.30 128.08 314.03 125.16 315.24 123.46
  C 317.30 120.59 320.74 118.31 324.49 119.16
  Q 325.02 119.27 324.89 119.80
  Q 324.48 121.57 322.83 121.86
  Q 319.95 122.37 319.05 124.98
  Q 318.37 126.91 319.95 125.61
  Q 321.67 124.19 323.78 123.22
  Q 324.23 123.01 324.62 123.34
  Q 327.23 125.56 330.50 125.07
  A 1.29 1.26 -75.2 0 0 331.30 124.59
  Q 332.02 123.65 332.35 122.48
  Q 332.72 121.12 334.07 121.11
  Q 335.01 121.10 335.40 122.07
  A 1.50 1.50 0.0 0 0 337.79 122.65
  C 339.98 120.72 344.20 120.23 346.24 122.86
  Q 347.74 124.79 349.82 126.09
  A 2.95 2.92 50.8 0 0 352.36 126.36
  Q 353.24 126.04 354.18 126.11
  A 2.29 2.17 -53.2 0 0 355.23 125.93
  Q 356.92 125.22 358.46 124.41
  Q 359.45 123.90 360.62 124.17
  Q 362.29 124.57 361.08 126.46
  A 2.26 2.23 -82.0 0 1 359.83 127.41
  Q 357.06 128.25 354.47 129.16
  Q 351.66 130.15 349.38 129.61
  Q 344.41 128.43 342.68 124.37
  A 1.13 1.13 0.0 0 0 340.69 124.19
  L 337.49 129.10
  Q 337.14 129.65 336.50 129.81
  Q 333.66 130.53 332.93 127.66
  Q 332.78 127.07 332.21 127.29
  Q 329.43 128.38 325.97 127.86
  Q 324.50 127.63 323.20 128.24
  Q 321.93 128.82 320.80 129.63
  Q 318.31 131.42 315.61 132.69
  A 1.65 1.63 60.4 0 1 313.55 132.11
  Q 311.73 129.40 308.68 129.90
  Q 308.04 130.00 307.49 129.65
  Q 305.02 128.03 303.75 125.26
  A 0.75 0.75 0.0 0 0 302.75 124.89
  Q 301.19 125.63 300.92 127.19
  Q 300.82 127.78 300.32 128.09
  L 297.63 129.76
  Q 297.06 130.11 296.48 129.78
  Q 295.01 128.95 294.94 127.28
  Q 294.89 125.92 294.13 127.05
  Q 292.75 129.08 291.82 131.38
  Q 291.46 132.27 290.67 132.66
  Q 288.90 133.52 287.55 132.10
  A 1.90 1.90 0.0 0 1 287.02 130.81
  L 286.99 128.24
  Q 286.98 127.55 286.29 127.64
  Q 285.43 127.75 284.97 128.41
  Q 284.65 128.88 284.09 128.88
  L 280.99 128.88
  A 1.14 1.13 -22.9 0 1 280.20 128.56
  Q 279.26 127.69 277.88 127.86
  A 1.01 0.96 -69.3 0 0 277.32 128.13
  L 273.82 131.52
  Q 273.38 131.94 272.78 131.84
  Q 272.35 131.77 272.19 132.22
  Q 271.95 132.88 271.25 132.88
  L 268.05 132.88
  Q 267.59 132.88 267.25 132.57
  L 265.57 131.10
  A 0.86 0.86 0.0 0 0 264.75 130.92
  Q 264.29 131.07 264.01 131.48
  Q 263.74 131.88 263.25 131.88
  L 258.96 131.88
  Q 258.46 131.88 258.12 131.51
  C 257.21 130.54 256.29 129.72 255.81 128.48
  Q 255.38 127.38 254.28 127.01
  Q 253.76 126.84 253.38 127.23
  Q 250.32 130.28 249.81 134.36
  Q 249.76 134.78 249.39 135.00
  Q 248.51 135.50 248.06 136.40
  Q 247.84 136.86 247.33 136.90
  C 245.99 137.02 244.93 135.83 244.96 134.49
  Q 245.02 131.46 245.02 128.74
  Q 245.02 128.12 244.42 128.28
  Q 240.91 129.25 237.18 128.85
  A 3.02 2.96 -60.3 0 0 235.03 129.46
  C 232.26 131.58 228.15 134.81 224.73 132.07
  A 1.84 1.83 -59.8 0 1 224.17 129.95
  Q 226.38 124.48 230.34 121.23
  Q 232.39 119.55 235.67 120.08
  Q 236.32 120.19 236.53 120.80
  Q 236.69 121.28 236.37 121.65
  Q 236.04 122.03 235.56 122.17
  Q 233.23 122.88 231.76 124.91
  Q 231.52 125.25 231.79 125.56
  Q 232.70 126.61 233.82 125.75
  C 235.04 124.82 236.51 124.37 237.98 125.12
  Q 240.89 126.59 243.90 125.96
  Q 245.10 125.70 245.10 124.48
  L 245.13 96.46
  A 0.38 0.38 0.0 0 1 245.49 96.09
  Q 245.69 96.08 245.79 95.91
  Q 245.93 95.66 245.95 95.38
  Q 246.18 90.42 246.10 85.84
  Q 246.09 85.31 246.55 85.04
  Q 247.16 84.68 247.10 83.94
  Q 247.06 83.46 247.42 83.13
  L 249.27 81.43
  Q 249.61 81.12 250.06 81.12
  L 251.45 81.12
  Q 251.82 81.12 251.93 81.48
  Q 252.09 82.03 252.64 82.05
  A 2.38 2.38 0.0 0 1 254.92 84.71
  Q 254.80 85.61 255.49 86.17
  Q 255.88 86.49 255.88 87.00
  L 255.88 103.39
  A 0.51 0.51 0.0 0 1 255.73 103.75
  Q 255.55 103.93 255.30 103.95
  A 0.31 0.30 -88.9 0 0 255.01 104.24
  L 254.84 108.08
  Q 254.81 108.54 254.51 108.89
  Q 253.55 110.03 253.83 112.02
  Q 253.89 112.51 253.61 112.90
  Q 252.60 114.29 252.86 116.06
  Q 252.93 116.58 252.55 116.94
  Q 251.58 117.89 251.92 119.20
  A 0.57 0.56 73.3 0 1 251.56 119.88
  L 251.32 119.97
  Q 251.12 120.04 251.08 120.26
  Q 250.57 123.02 249.08 125.59
  Q 249.07 125.60 249.08 125.61
  L 249.29 125.75
  Q 249.51 125.89 249.67 125.69
  Q 250.75 124.37 252.36 124.06
  Q 252.92 123.95 253.23 123.47
  Q 253.64 122.82 254.34 123.16
  Q 257.65 124.72 260.12 127.71
  Q 260.47 128.12 261.00 128.12
  L 263.96 128.12
  A 1.16 1.13 22.3 0 0 264.76 127.80
  C 265.82 126.75 267.22 126.23 268.08 125.00
  Q 270.58 121.46 274.13 119.37
  Q 274.54 119.13 275.02 119.14
  Q 275.78 119.15 276.55 119.08
  Q 277.31 119.01 277.90 119.42
  Q 278.87 120.10 278.91 121.23
  Q 278.94 121.88 278.29 121.88
  L 277.19 121.88
  Q 276.60 121.88 276.19 122.29
  L 272.00 126.43
  Q 271.58 126.84 272.13 127.03
  L 272.38 127.12
  A 1.14 1.14 0.0 0 0 273.51 126.90
  L 276.10 124.65
  A 3.17 3.17 0.0 0 1 280.32 124.72
  Q 281.34 125.66 282.98 125.98
  A 1.22 1.21 -63.4 0 0 284.11 125.60
  Q 284.66 124.97 285.46 125.10
  Q 286.10 125.21 286.12 124.57
  Q 286.16 123.25 286.05 121.81
  Q 285.94 120.40 286.92 119.61
  Q 287.88 118.83 289.38 119.10
  Q 289.92 119.20 289.88 119.74
  Q 289.82 120.62 290.54 121.10
  Q 290.88 121.32 290.88 121.72
  L 290.88 123.75
  Q 290.88 124.64 291.52 124.03
  C 293.58 122.09 295.65 120.87 298.31 122.95
  Z"
/>
</svg>
