<?xml version="1.0" encoding="UTF-8" standalone="no"?>
<!DOCTYPE svg PUBLIC "-//W3C//DTD SVG 1.1//EN" "http://www.w3.org/Graphics/SVG/1.1/DTD/svg11.dtd">
<svg xmlns="http://www.w3.org/2000/svg" version="1.1" viewBox="0.00 0.00 499.00 500.00">
<g stroke-width="2.00" fill="none" stroke-linecap="butt">
<path stroke="#5c9896" vector-effect="non-scaling-stroke" d="
  M 353.06 298.22
  Q 350.35 297.17 347.36 296.29
  Q 335.73 292.85 324.80 295.98
  Q 323.93 296.23 324.41 295.47
  Q 330.25 286.18 334.35 273.47
  C 338.17 261.63 338.64 249.18 337.74 236.85
  Q 337.12 228.27 334.49 219.82
  Q 323.72 185.22 293.22 166.56
  C 277.20 156.75 257.87 152.17 239.51 153.36
  Q 204.77 155.62 179.69 180.45
  Q 167.85 192.18 161.45 205.82
  Q 145.81 239.13 156.32 273.84
  C 163.54 297.66 180.03 317.32 201.85 328.89
  Q 211.22 333.86 220.10 336.23
  Q 246.58 343.29 272.93 335.50
  C 281.11 333.08 289.17 328.97 296.55 324.44
  A 0.28 0.28 0.0 0 1 296.97 324.72
  Q 296.64 326.91 296.34 329.26
  Q 294.64 342.38 300.36 353.25"
/>
<path stroke="#adb7c0" vector-effect="non-scaling-stroke" d="
  M 258.87 213.11
  Q 262.30 214.92 265.14 217.32
  C 269.67 221.15 273.84 218.97 278.01 216.30
  Q 282.27 213.57 286.58 210.68
  C 291.17 207.61 287.66 203.62 284.79 200.99
  Q 273.02 190.18 258.99 188.10
  Q 258.34 188.00 258.35 187.34
  Q 258.44 182.20 258.37 177.48
  Q 258.26 170.80 252.08 170.78
  Q 247.74 170.76 243.01 170.71
  C 239.12 170.67 236.08 173.04 236.18 177.15
  Q 236.30 182.31 236.23 187.03
  A 0.84 0.83 -3.3 0 1 235.51 187.83
  C 222.14 189.59 207.75 196.76 202.30 209.16
  C 197.61 219.85 200.18 232.60 208.46 241.07
  Q 213.83 246.57 221.45 249.84
  C 225.94 251.77 231.08 252.72 235.95 253.66
  Q 236.25 253.72 236.25 254.02
  L 236.45 278.23
  A 0.60 0.59 -80.5 0 1 235.66 278.80
  C 228.59 276.29 224.07 271.98 218.87 266.86
  C 216.68 264.70 214.13 264.06 211.35 265.63
  C 207.95 267.54 204.55 269.48 201.12 271.31
  C 196.15 273.95 197.41 278.00 200.40 281.46
  Q 214.60 297.91 235.71 301.92
  Q 236.23 302.02 236.24 302.55
  Q 236.31 306.48 236.19 310.75
  C 236.11 313.97 237.77 317.07 240.99 317.43
  Q 244.87 317.85 252.67 317.57
  C 256.55 317.43 258.38 314.58 258.37 310.95
  Q 258.36 306.76 258.32 302.53
  Q 258.31 301.92 258.91 301.84
  Q 266.85 300.72 275.21 296.79
  C 288.38 290.60 296.57 279.29 296.03 264.58
  Q 295.79 257.86 293.05 252.93
  Q 289.90 247.25 285.78 243.97
  Q 278.88 238.47 270.43 235.72
  C 266.69 234.50 262.74 233.98 258.84 233.26
  A 0.55 0.55 0.0 0 1 258.39 232.72
  L 258.30 213.46
  A 0.39 0.39 0.0 0 1 258.87 213.11"
/>
<path stroke="#79a2a5" vector-effect="non-scaling-stroke" d="
  M 365.81 334.68
  A 29.88 29.88 0.0 0 0 335.93 304.80
  A 29.88 29.88 0.0 0 0 306.05 334.68
  A 29.88 29.88 0.0 0 0 335.93 364.56
  A 29.88 29.88 0.0 0 0 365.81 334.68"
/>
<path stroke="#adb7c0" vector-effect="non-scaling-stroke" d="
  M 236.34 229.87
  L 236.32 212.79
  A 0.01 0.01 0.0 0 0 236.31 212.78
  L 236.22 212.78
  A 8.42 6.94 89.9 0 0 229.29 221.22
  L 229.29 221.48
  A 8.42 6.94 89.9 0 0 236.24 229.88
  L 236.33 229.88
  A 0.01 0.01 0.0 0 0 236.34 229.87"
/>
<path stroke="#adb7c0" vector-effect="non-scaling-stroke" d="
  M 258.30 256.94
  L 258.22 277.68
  A 0.12 0.12 0.0 0 0 258.34 277.81
  L 258.38 277.81
  A 10.40 8.52 -89.8 0 0 266.94 267.44
  L 266.94 267.26
  A 10.40 8.52 -89.8 0 0 258.46 256.83
  L 258.42 256.83
  A 0.12 0.12 0.0 0 0 258.30 256.94"
/>
<path stroke="#cbeae4" vector-effect="non-scaling-stroke" d="
  M 357.02 328.86
  A 0.61 0.61 0.0 0 0 356.41 328.25
  L 342.92 328.33
  A 0.61 0.61 0.0 0 1 342.30 327.71
  L 342.37 314.07
  A 0.61 0.61 0.0 0 0 341.76 313.46
  L 330.08 313.46
  A 0.61 0.61 0.0 0 0 329.47 314.07
  L 329.56 327.72
  A 0.61 0.61 0.0 0 1 328.94 328.34
  L 315.37 328.24
  A 0.61 0.61 0.0 0 0 314.76 328.85
  L 314.72 340.48
  A 0.61 0.61 0.0 0 0 315.33 341.09
  L 328.95 341.05
  A 0.61 0.61 0.0 0 1 329.56 341.66
  L 329.51 355.14
  A 0.61 0.61 0.0 0 0 330.12 355.75
  L 341.74 355.78
  A 0.61 0.61 0.0 0 0 342.35 355.17
  L 342.32 341.63
  A 0.61 0.61 0.0 0 1 342.94 341.02
  L 356.38 341.13
  A 0.61 0.61 0.0 0 0 356.99 340.53
  L 357.02 328.86"
/>
</g>
<path fill="#5cc1ab" d="
  M 353.06 298.22
  Q 350.35 297.17 347.36 296.29
  Q 335.73 292.85 324.80 295.98
  Q 323.93 296.23 324.41 295.47
  Q 330.25 286.18 334.35 273.47
  C 338.17 261.63 338.64 249.18 337.74 236.85
  Q 337.12 228.27 334.49 219.82
  Q 323.72 185.22 293.22 166.56
  C 277.20 156.75 257.87 152.17 239.51 153.36
  Q 204.77 155.62 179.69 180.45
  Q 167.85 192.18 161.45 205.82
  Q 145.81 239.13 156.32 273.84
  C 163.54 297.66 180.03 317.32 201.85 328.89
  Q 211.22 333.86 220.10 336.23
  Q 246.58 343.29 272.93 335.50
  C 281.11 333.08 289.17 328.97 296.55 324.44
  A 0.28 0.28 0.0 0 1 296.97 324.72
  Q 296.64 326.91 296.34 329.26
  Q 294.64 342.38 300.36 353.25
  Q 292.87 357.53 285.25 360.24
  Q 266.06 367.07 247.10 367.46
  Q 219.88 368.02 196.41 357.76
  Q 165.38 344.19 145.88 317.05
  Q 128.83 293.33 124.40 264.47
  Q 124.00 261.83 123.81 258.80
  C 123.65 256.34 123.15 254.04 123.05 251.50
  Q 122.69 242.18 123.39 237.21
  Q 123.74 234.66 123.90 232.19
  Q 124.07 229.46 124.51 227.28
  Q 125.59 221.92 126.51 217.56
  C 127.60 212.37 129.34 207.03 131.25 202.67
  C 133.17 198.29 134.77 193.84 137.08 189.65
  Q 140.41 183.61 144.04 178.33
  Q 157.63 158.55 176.16 146.21
  Q 204.64 127.26 237.26 125.29
  Q 258.08 124.03 277.96 130.31
  Q 281.27 131.36 284.47 132.33
  Q 287.91 133.37 290.87 134.74
  Q 300.97 139.40 304.68 141.65
  Q 345.02 166.11 359.57 210.65
  Q 361.91 217.80 363.09 226.03
  Q 364.23 233.89 364.81 241.75
  C 365.34 248.89 364.45 254.92 363.76 261.49
  Q 361.75 280.51 353.06 298.22
  Z"
/>
<path fill="#5b6e80" d="
  M 353.06 298.22
  Q 355.82 300.13 358.67 301.95
  Q 362.03 304.10 363.95 306.23
  C 366.36 308.91 368.85 311.47 370.59 314.74
  Q 380.78 333.86 371.68 352.49
  Q 367.44 361.18 359.25 367.14
  C 350.83 373.28 339.74 375.95 329.01 374.00
  Q 310.64 370.66 300.36 353.25
  Q 294.64 342.38 296.34 329.26
  Q 296.64 326.91 296.97 324.72
  A 0.28 0.28 0.0 0 0 296.55 324.44
  C 289.17 328.97 281.11 333.08 272.93 335.50
  Q 246.58 343.29 220.10 336.23
  Q 211.22 333.86 201.85 328.89
  C 180.03 317.32 163.54 297.66 156.32 273.84
  Q 145.81 239.13 161.45 205.82
  Q 167.85 192.18 179.69 180.45
  Q 204.77 155.62 239.51 153.36
  C 257.87 152.17 277.20 156.75 293.22 166.56
  Q 323.72 185.22 334.49 219.82
  Q 337.12 228.27 337.74 236.85
  C 338.64 249.18 338.17 261.63 334.35 273.47
  Q 330.25 286.18 324.41 295.47
  Q 323.93 296.23 324.80 295.98
  Q 335.73 292.85 347.36 296.29
  Q 350.35 297.17 353.06 298.22
  Z
  M 258.87 213.11
  Q 262.30 214.92 265.14 217.32
  C 269.67 221.15 273.84 218.97 278.01 216.30
  Q 282.27 213.57 286.58 210.68
  C 291.17 207.61 287.66 203.62 284.79 200.99
  Q 273.02 190.18 258.99 188.10
  Q 258.34 188.00 258.35 187.34
  Q 258.44 182.20 258.37 177.48
  Q 258.26 170.80 252.08 170.78
  Q 247.74 170.76 243.01 170.71
  C 239.12 170.67 236.08 173.04 236.18 177.15
  Q 236.30 182.31 236.23 187.03
  A 0.84 0.83 -3.3 0 1 235.51 187.83
  C 222.14 189.59 207.75 196.76 202.30 209.16
  C 197.61 219.85 200.18 232.60 208.46 241.07
  Q 213.83 246.57 221.45 249.84
  C 225.94 251.77 231.08 252.72 235.95 253.66
  Q 236.25 253.72 236.25 254.02
  L 236.45 278.23
  A 0.60 0.59 -80.5 0 1 235.66 278.80
  C 228.59 276.29 224.07 271.98 218.87 266.86
  C 216.68 264.70 214.13 264.06 211.35 265.63
  C 207.95 267.54 204.55 269.48 201.12 271.31
  C 196.15 273.95 197.41 278.00 200.40 281.46
  Q 214.60 297.91 235.71 301.92
  Q 236.23 302.02 236.24 302.55
  Q 236.31 306.48 236.19 310.75
  C 236.11 313.97 237.77 317.07 240.99 317.43
  Q 244.87 317.85 252.67 317.57
  C 256.55 317.43 258.38 314.58 258.37 310.95
  Q 258.36 306.76 258.32 302.53
  Q 258.31 301.92 258.91 301.84
  Q 266.85 300.72 275.21 296.79
  C 288.38 290.60 296.57 279.29 296.03 264.58
  Q 295.79 257.86 293.05 252.93
  Q 289.90 247.25 285.78 243.97
  Q 278.88 238.47 270.43 235.72
  C 266.69 234.50 262.74 233.98 258.84 233.26
  A 0.55 0.55 0.0 0 1 258.39 232.72
  L 258.30 213.46
  A 0.39 0.39 0.0 0 1 258.87 213.11
  Z
  M 365.81 334.68
  A 29.88 29.88 0.0 0 0 335.93 304.80
  A 29.88 29.88 0.0 0 0 306.05 334.68
  A 29.88 29.88 0.0 0 0 335.93 364.56
  A 29.88 29.88 0.0 0 0 365.81 334.68
  Z"
/>
<path fill="#ffffff" d="
  M 258.87 213.11
  A 0.39 0.39 0.0 0 0 258.30 213.46
  L 258.39 232.72
  A 0.55 0.55 0.0 0 0 258.84 233.26
  C 262.74 233.98 266.69 234.50 270.43 235.72
  Q 278.88 238.47 285.78 243.97
  Q 289.90 247.25 293.05 252.93
  Q 295.79 257.86 296.03 264.58
  C 296.57 279.29 288.38 290.60 275.21 296.79
  Q 266.85 300.72 258.91 301.84
  Q 258.31 301.92 258.32 302.53
  Q 258.36 306.76 258.37 310.95
  C 258.38 314.58 256.55 317.43 252.67 317.57
  Q 244.87 317.85 240.99 317.43
  C 237.77 317.07 236.11 313.97 236.19 310.75
  Q 236.31 306.48 236.24 302.55
  Q 236.23 302.02 235.71 301.92
  Q 214.60 297.91 200.40 281.46
  C 197.41 278.00 196.15 273.95 201.12 271.31
  C 204.55 269.48 207.95 267.54 211.35 265.63
  C 214.13 264.06 216.68 264.70 218.87 266.86
  C 224.07 271.98 228.59 276.29 235.66 278.80
  A 0.60 0.59 -80.5 0 0 236.45 278.23
  L 236.25 254.02
  Q 236.25 253.72 235.95 253.66
  C 231.08 252.72 225.94 251.77 221.45 249.84
  Q 213.83 246.57 208.46 241.07
  C 200.18 232.60 197.61 219.85 202.30 209.16
  C 207.75 196.76 222.14 189.59 235.51 187.83
  A 0.84 0.83 -3.3 0 0 236.23 187.03
  Q 236.30 182.31 236.18 177.15
  C 236.08 173.04 239.12 170.67 243.01 170.71
  Q 247.74 170.76 252.08 170.78
  Q 258.26 170.80 258.37 177.48
  Q 258.44 182.20 258.35 187.34
  Q 258.34 188.00 258.99 188.10
  Q 273.02 190.18 284.79 200.99
  C 287.66 203.62 291.17 207.61 286.58 210.68
  Q 282.27 213.57 278.01 216.30
  C 273.84 218.97 269.67 221.15 265.14 217.32
  Q 262.30 214.92 258.87 213.11
  Z
  M 236.34 229.87
  L 236.32 212.79
  A 0.01 0.01 0.0 0 0 236.31 212.78
  L 236.22 212.78
  A 8.42 6.94 89.9 0 0 229.29 221.22
  L 229.29 221.48
  A 8.42 6.94 89.9 0 0 236.24 229.88
  L 236.33 229.88
  A 0.01 0.01 0.0 0 0 236.34 229.87
  Z
  M 258.30 256.94
  L 258.22 277.68
  A 0.12 0.12 0.0 0 0 258.34 277.81
  L 258.38 277.81
  A 10.40 8.52 -89.8 0 0 266.94 267.44
  L 266.94 267.26
  A 10.40 8.52 -89.8 0 0 258.46 256.83
  L 258.42 256.83
  A 0.12 0.12 0.0 0 0 258.30 256.94
  Z"
/>
<path fill="#5b6e80" d="
  M 236.34 229.87
  A 0.01 0.01 0.0 0 1 236.33 229.88
  L 236.24 229.88
  A 8.42 6.94 89.9 0 1 229.29 221.48
  L 229.29 221.22
  A 8.42 6.94 89.9 0 1 236.22 212.78
  L 236.31 212.78
  A 0.01 0.01 0.0 0 1 236.32 212.79
  L 236.34 229.87
  Z"
/>
<path fill="#5b6e80" d="
  M 258.30 256.94
  A 0.12 0.12 0.0 0 1 258.42 256.83
  L 258.46 256.83
  A 10.40 8.52 -89.8 0 1 266.94 267.26
  L 266.94 267.44
  A 10.40 8.52 -89.8 0 1 258.38 277.81
  L 258.34 277.81
  A 0.12 0.12 0.0 0 1 258.22 277.68
  L 258.30 256.94
  Z"
/>
<path fill="#97d5c9" d="
  M 365.81 334.68
  A 29.88 29.88 0.0 0 1 335.93 364.56
  A 29.88 29.88 0.0 0 1 306.05 334.68
  A 29.88 29.88 0.0 0 1 335.93 304.80
  A 29.88 29.88 0.0 0 1 365.81 334.68
  Z
  M 357.02 328.86
  A 0.61 0.61 0.0 0 0 356.41 328.25
  L 342.92 328.33
  A 0.61 0.61 0.0 0 1 342.30 327.71
  L 342.37 314.07
  A 0.61 0.61 0.0 0 0 341.76 313.46
  L 330.08 313.46
  A 0.61 0.61 0.0 0 0 329.47 314.07
  L 329.56 327.72
  A 0.61 0.61 0.0 0 1 328.94 328.34
  L 315.37 328.24
  A 0.61 0.61 0.0 0 0 314.76 328.85
  L 314.72 340.48
  A 0.61 0.61 0.0 0 0 315.33 341.09
  L 328.95 341.05
  A 0.61 0.61 0.0 0 1 329.56 341.66
  L 329.51 355.14
  A 0.61 0.61 0.0 0 0 330.12 355.75
  L 341.74 355.78
  A 0.61 0.61 0.0 0 0 342.35 355.17
  L 342.32 341.63
  A 0.61 0.61 0.0 0 1 342.94 341.02
  L 356.38 341.13
  A 0.61 0.61 0.0 0 0 356.99 340.53
  L 357.02 328.86
  Z"
/>
<path fill="#ffffff" d="
  M 357.02 328.86
  L 356.99 340.53
  A 0.61 0.61 0.0 0 1 356.38 341.13
  L 342.94 341.02
  A 0.61 0.61 0.0 0 0 342.32 341.63
  L 342.35 355.17
  A 0.61 0.61 0.0 0 1 341.74 355.78
  L 330.12 355.75
  A 0.61 0.61 0.0 0 1 329.51 355.14
  L 329.56 341.66
  A 0.61 0.61 0.0 0 0 328.95 341.05
  L 315.33 341.09
  A 0.61 0.61 0.0 0 1 314.72 340.48
  L 314.76 328.85
  A 0.61 0.61 0.0 0 1 315.37 328.24
  L 328.94 328.34
  A 0.61 0.61 0.0 0 0 329.56 327.72
  L 329.47 314.07
  A 0.61 0.61 0.0 0 1 330.08 313.46
  L 341.76 313.46
  A 0.61 0.61 0.0 0 1 342.37 314.07
  L 342.30 327.71
  A 0.61 0.61 0.0 0 0 342.92 328.33
  L 356.41 328.25
  A 0.61 0.61 0.0 0 1 357.02 328.86
  Z"
/>
</svg>
