<?xml version="1.0" encoding="UTF-8" standalone="no"?>
<!DOCTYPE svg PUBLIC "-//W3C//DTD SVG 1.1//EN" "http://www.w3.org/Graphics/SVG/1.1/DTD/svg11.dtd">
<svg xmlns="http://www.w3.org/2000/svg" version="1.1" viewBox="0.00 0.00 500.00 500.00">
<path fill="#44c6ac" d="
  M 349.21 95.93
  C 356.15 100.91 356.31 107.05 351.36 113.88
  C 349.23 116.81 346.93 120.14 344.15 122.51
  Q 342.17 124.20 340.65 126.18
  C 339.03 128.27 336.78 129.47 335.13 131.58
  Q 333.57 133.56 331.57 135.14
  C 329.46 136.81 328.24 139.09 326.10 140.69
  C 323.61 142.57 321.86 145.21 319.50 147.20
  Q 317.38 148.99 315.70 151.19
  C 313.91 153.53 311.43 154.76 309.73 157.19
  C 308.22 159.33 305.87 160.49 304.31 162.62
  C 302.67 164.84 300.68 166.17 298.89 168.13
  Q 296.13 171.16 293.24 173.88
  C 291.60 175.43 290.45 177.34 288.73 178.74
  Q 286.65 180.43 285.05 182.51
  C 283.49 184.55 281.39 185.98 279.75 187.96
  Q 278.28 189.73 276.68 191.33
  Q 271.91 196.08 267.23 201.13
  Q 265.23 203.29 263.22 204.82
  C 261.35 206.26 259.25 208.27 257.00 209.06
  C 251.47 211.01 245.03 210.69 241.11 205.96
  C 239.08 203.51 236.43 201.99 234.57 199.36
  C 232.87 196.97 230.40 195.88 228.67 193.50
  C 226.80 190.93 224.07 189.49 222.09 186.98
  Q 220.57 185.05 218.50 183.45
  C 216.54 181.95 215.47 179.76 213.50 178.30
  C 210.67 176.21 209.17 173.28 206.38 171.19
  C 204.16 169.54 203.08 167.15 200.86 165.57
  C 198.11 163.59 196.57 160.77 193.90 158.75
  C 191.75 157.12 190.59 154.77 188.46 153.20
  C 185.70 151.15 184.16 148.23 181.42 146.16
  C 179.20 144.48 178.07 142.10 175.85 140.51
  C 173.12 138.55 171.44 135.75 168.82 133.70
  C 166.74 132.07 165.57 129.84 163.52 128.30
  Q 161.05 126.43 159.36 124.04
  C 157.88 121.94 155.58 121.13 154.12 119.01
  Q 152.87 117.21 151.31 115.40
  Q 142.21 104.84 151.22 96.51
  C 153.28 94.61 154.68 92.27 156.90 90.63
  C 159.00 89.09 160.12 86.90 162.11 85.32
  Q 164.19 83.66 165.76 81.73
  C 169.92 76.61 179.39 76.85 183.58 82.11
  C 185.43 84.44 187.84 85.96 189.67 88.25
  C 191.44 90.47 193.76 92.01 195.57 94.18
  C 197.75 96.80 200.52 98.77 202.69 101.38
  C 204.28 103.29 206.26 104.70 207.90 106.56
  Q 209.82 108.73 211.92 110.59
  C 213.83 112.28 215.30 114.30 217.22 115.92
  Q 219.06 117.48 220.57 119.24
  C 222.66 121.69 225.26 123.49 227.35 125.93
  Q 229.07 127.95 231.07 129.61
  C 232.97 131.18 234.42 133.12 236.23 134.82
  C 239.18 137.58 241.85 140.71 245.20 143.22
  C 249.69 146.57 255.52 146.67 259.32 142.39
  C 261.15 140.32 263.43 138.92 265.07 136.72
  C 266.71 134.52 269.07 133.16 270.85 130.95
  C 272.87 128.44 275.50 126.75 277.56 124.25
  Q 279.24 122.21 281.25 120.60
  Q 282.81 119.33 284.04 117.74
  C 285.70 115.57 288.01 114.18 289.75 112.06
  Q 291.33 110.13 293.39 108.45
  C 295.30 106.89 296.50 104.85 298.39 103.32
  Q 301.10 101.14 303.33 98.39
  C 304.94 96.42 307.09 95.14 308.72 93.11
  Q 310.32 91.12 312.33 89.50
  C 314.28 87.93 315.53 85.80 317.46 84.28
  Q 319.19 82.90 320.69 81.16
  C 323.39 78.04 328.28 77.89 331.86 79.17
  C 334.48 80.10 335.64 82.76 337.86 84.37
  C 340.32 86.16 341.72 88.87 344.26 90.73
  C 346.24 92.19 347.21 94.49 349.21 95.93
  Z"
/>
<path fill="#152348" d="
  M 7.82 258.71
  C 6.75 254.75 10.00 249.80 13.01 247.38
  C 15.48 245.38 17.02 242.78 19.50 240.79
  C 21.81 238.93 23.14 236.37 25.63 234.51
  C 27.84 232.85 28.91 230.48 31.05 228.85
  Q 33.44 227.04 35.21 224.56
  C 36.71 222.45 39.05 221.40 40.50 219.33
  C 42.31 216.74 44.93 215.41 46.72 212.92
  C 48.71 210.14 51.62 208.70 53.65 205.89
  C 55.27 203.63 57.76 202.47 59.39 200.10
  C 61.19 197.47 63.92 196.21 65.72 193.62
  Q 67.08 191.68 69.17 190.22
  C 71.13 188.86 71.93 186.58 73.86 185.18
  Q 76.32 183.41 78.00 181.19
  C 79.84 178.76 82.33 177.40 84.16 174.96
  Q 85.81 172.75 88.06 171.05
  C 90.15 169.46 91.14 167.13 93.34 165.58
  C 95.81 163.84 96.92 161.27 99.33 159.52
  Q 101.46 157.98 103.09 155.82
  C 104.74 153.63 107.54 152.13 109.96 150.99
  C 114.80 148.69 120.41 151.76 123.89 155.25
  Q 167.44 198.98 211.47 242.80
  Q 216.71 248.01 217.99 251.44
  C 220.67 258.58 217.85 264.80 212.57 269.63
  Q 210.89 271.17 209.26 272.74
  Q 183.27 297.82 155.83 324.34
  Q 154.45 325.67 153.16 327.15
  C 151.89 328.61 150.20 329.69 148.80 331.10
  Q 142.93 337.02 137.09 342.49
  C 135.27 344.19 133.82 346.04 131.85 347.61
  C 129.51 349.47 128.06 351.99 125.63 353.76
  C 123.27 355.49 121.65 358.18 118.87 359.27
  C 113.22 361.48 107.40 360.47 103.17 356.28
  C 100.81 353.95 98.32 352.44 96.37 349.79
  Q 95.27 348.30 93.73 347.08
  Q 90.04 344.14 87.03 338.87
  C 83.15 332.07 88.17 324.20 93.29 319.86
  Q 94.70 318.66 95.83 317.26
  C 96.90 315.93 98.21 315.09 99.39 313.92
  Q 106.92 306.49 114.70 298.98
  C 115.39 298.31 115.74 297.39 116.57 296.81
  Q 119.36 294.86 121.49 292.08
  C 122.44 290.84 123.70 290.15 124.81 289.06
  Q 131.70 282.28 138.85 275.47
  C 140.34 274.06 141.28 272.41 143.04 271.17
  C 145.41 269.51 146.28 267.16 148.26 265.24
  C 151.73 261.88 154.26 257.03 150.95 252.60
  Q 138.69 236.19 121.46 223.38
  C 116.61 219.78 107.50 222.47 103.26 225.91
  Q 101.40 227.41 99.40 228.66
  C 97.07 230.11 96.07 232.55 93.84 234.07
  Q 91.73 235.52 90.15 237.58
  C 88.51 239.72 86.14 240.70 84.60 242.83
  C 82.75 245.39 80.11 246.65 78.25 249.15
  Q 76.51 251.50 74.25 253.18
  C 71.84 254.97 70.51 257.49 68.08 259.27
  Q 66.47 260.45 65.31 262.10
  C 63.57 264.57 61.03 265.82 59.30 268.29
  Q 57.97 270.18 56.12 271.52
  C 53.80 273.18 52.72 276.05 50.45 277.53
  Q 48.69 278.68 46.96 280.03
  C 43.76 282.53 39.62 284.11 35.68 284.32
  C 32.93 284.47 30.42 282.45 28.57 280.68
  C 26.60 278.81 23.88 277.98 22.14 275.96
  Q 20.10 273.61 17.55 271.75
  C 15.24 270.06 13.87 267.51 11.68 265.61
  C 9.77 263.95 8.46 261.09 7.82 258.71
  Z"
/>
<path fill="#152348" d="
  M 395.59 221.61
  C 392.16 218.06 387.17 217.43 383.20 220.47
  C 381.70 221.61 380.03 222.27 378.69 223.68
  C 376.24 226.28 373.30 228.02 370.71 230.42
  Q 365.88 234.88 361.10 239.45
  Q 359.07 241.40 357.69 243.30
  C 356.42 245.04 354.64 246.92 354.01 248.94
  C 352.15 254.99 352.88 261.65 357.51 265.94
  C 359.27 267.56 359.91 269.78 361.79 271.33
  C 364.45 273.52 365.77 276.63 368.56 278.61
  C 370.91 280.28 371.98 282.79 374.32 284.43
  C 377.13 286.39 378.67 289.25 381.42 291.28
  C 383.48 292.80 384.50 295.03 386.53 296.48
  C 389.45 298.57 390.85 301.54 393.71 303.62
  C 396.03 305.32 397.11 307.79 399.47 309.45
  Q 401.44 310.83 402.86 312.69
  C 404.76 315.19 407.29 316.64 409.24 319.19
  Q 410.31 320.60 411.77 321.80
  Q 416.33 325.58 417.70 329.83
  C 419.03 333.92 416.63 338.82 413.36 341.49
  Q 411.70 342.85 410.32 344.55
  C 408.54 346.76 406.20 348.35 404.45 350.55
  Q 402.71 352.73 400.52 354.52
  C 398.19 356.44 396.52 359.12 394.09 360.89
  C 384.85 367.61 380.00 358.84 373.99 353.46
  C 371.77 351.47 370.32 349.15 368.09 347.36
  Q 366.16 345.80 364.53 343.74
  C 362.94 341.74 360.83 340.53 359.29 338.53
  C 357.38 336.05 354.80 334.54 352.89 332.12
  C 350.91 329.59 348.21 328.16 346.27 325.64
  Q 344.61 323.49 342.44 321.81
  C 340.43 320.26 339.19 318.09 337.19 316.49
  Q 335.16 314.87 333.50 312.91
  C 331.90 311.01 329.89 309.65 328.22 307.78
  C 325.95 305.23 323.37 303.23 320.96 300.76
  Q 309.75 289.34 299.09 279.34
  C 298.39 278.68 297.55 278.27 296.95 277.52
  Q 294.95 275.04 292.53 272.94
  C 290.24 270.94 288.50 268.67 286.59 266.34
  Q 285.44 264.92 284.82 263.28
  Q 282.26 256.50 284.89 249.67
  C 285.99 246.82 288.38 245.22 290.10 242.79
  Q 291.12 241.37 292.57 240.41
  Q 294.86 238.91 296.58 236.81
  C 298.42 234.57 301.10 233.50 302.99 231.17
  Q 304.39 229.43 306.16 228.20
  C 308.80 226.36 310.33 223.56 313.06 221.76
  C 315.35 220.25 316.57 217.85 318.80 216.22
  C 321.43 214.30 323.10 211.66 325.68 209.70
  Q 327.53 208.30 328.99 206.32
  C 330.56 204.21 332.85 203.20 334.39 201.10
  Q 336.26 198.55 338.74 196.59
  C 340.59 195.14 341.61 193.03 343.50 191.54
  Q 345.62 189.87 347.20 187.78
  C 349.04 185.35 351.75 183.96 353.41 181.47
  C 354.94 179.17 357.25 177.90 358.91 175.67
  C 359.93 174.30 360.78 172.91 362.17 171.86
  Q 364.17 170.35 365.48 168.31
  C 367.00 165.94 369.35 164.68 370.97 162.36
  Q 372.43 160.27 374.44 158.50
  C 376.30 156.86 377.65 154.63 379.70 153.21
  Q 383.53 150.57 387.22 150.52
  C 390.06 150.49 392.28 152.10 394.80 153.24
  C 396.99 154.24 398.86 156.75 400.74 158.32
  Q 402.79 160.02 404.44 162.02
  C 406.07 164.01 408.16 165.32 409.78 167.27
  C 411.90 169.82 414.46 171.76 416.73 174.24
  Q 421.15 179.07 426.10 183.60
  C 428.18 185.50 429.76 187.65 431.87 189.45
  Q 433.81 191.11 435.49 193.11
  C 437.14 195.07 439.18 196.49 440.90 198.39
  Q 445.84 203.82 451.55 209.04
  Q 453.00 210.36 454.19 211.81
  C 455.94 213.93 458.19 215.31 459.86 217.41
  C 461.79 219.81 464.20 221.54 466.29 223.82
  Q 470.88 228.83 475.99 233.53
  Q 477.98 235.37 479.64 237.32
  C 481.20 239.17 483.24 240.37 484.70 242.23
  Q 486.40 244.39 488.49 246.03
  Q 490.23 247.39 491.55 249.70
  C 494.98 255.67 493.61 262.40 488.29 266.64
  C 486.32 268.22 484.91 270.31 483.00 271.85
  Q 480.56 273.82 478.53 276.33
  C 476.61 278.71 473.95 280.09 471.99 282.57
  C 469.55 285.67 464.07 288.31 460.31 286.13
  Q 456.53 283.94 454.34 281.19
  Q 452.65 279.06 450.49 277.34
  C 448.27 275.57 446.76 272.90 444.50 271.16
  C 441.94 269.20 440.29 266.51 437.79 264.44
  C 435.89 262.86 434.64 260.79 432.76 259.26
  Q 430.82 257.68 429.25 255.76
  C 427.30 253.36 424.79 251.63 422.76 249.24
  Q 421.04 247.21 419.11 245.49
  C 417.28 243.86 415.74 241.96 413.98 240.22
  Q 404.58 230.92 395.59 221.61
  Z"
/>
<path fill="#44c6ac" d="
  M 254.09 361.10
  Q 247.47 358.42 241.58 364.17
  Q 234.80 370.78 227.20 378.45
  Q 215.58 390.18 203.53 402.28
  Q 192.45 413.41 180.55 425.25
  Q 178.10 427.69 174.34 427.36
  Q 172.11 427.16 169.47 425.15
  Q 164.71 421.53 160.99 418.02
  Q 153.95 411.37 147.61 402.07
  Q 145.32 398.72 147.27 395.13
  Q 148.53 392.79 150.97 390.94
  C 153.19 389.25 154.33 386.94 156.47 385.22
  Q 158.50 383.58 160.23 381.32
  C 161.81 379.27 164.01 378.16 165.50 376.09
  C 167.40 373.44 170.05 371.75 172.08 369.21
  C 174.25 366.49 177.04 364.84 179.02 362.06
  C 180.48 360.01 182.77 359.02 184.21 356.91
  C 186.00 354.30 188.61 352.91 190.52 350.36
  C 192.41 347.83 195.01 346.17 196.93 343.65
  Q 198.41 341.71 200.45 340.19
  C 202.45 338.69 203.49 336.33 205.39 334.95
  Q 207.50 333.41 209.04 331.35
  C 210.89 328.88 213.38 327.39 215.23 324.94
  Q 216.93 322.69 219.13 321.00
  C 221.17 319.43 222.14 317.13 224.28 315.56
  C 227.08 313.51 228.59 310.63 231.34 308.49
  C 233.20 307.04 234.25 304.95 236.01 303.54
  C 239.08 301.09 240.80 297.63 244.25 295.71
  Q 250.90 292.00 256.83 295.50
  Q 258.98 296.77 265.24 303.07
  Q 282.01 319.94 297.79 336.04
  C 300.20 338.49 302.73 340.78 304.97 343.34
  C 306.51 345.10 308.40 346.40 309.83 348.21
  Q 310.56 349.14 311.39 350.00
  Q 318.86 357.75 325.57 364.52
  C 326.25 365.21 327.44 365.97 327.93 366.74
  Q 329.55 369.25 331.91 371.14
  C 334.22 372.98 335.55 375.46 337.78 377.38
  Q 339.83 379.16 341.51 381.31
  C 343.09 383.33 345.21 384.62 346.70 386.69
  Q 348.28 388.89 350.53 390.65
  Q 352.97 392.57 354.75 397.11
  Q 355.43 398.83 354.81 400.31
  Q 352.82 405.09 349.68 408.72
  Q 348.14 410.50 346.90 412.37
  C 345.00 415.24 342.24 417.06 340.08 419.70
  C 338.74 421.35 336.77 421.85 335.30 423.33
  Q 333.15 425.50 330.74 426.82
  C 328.16 428.24 322.95 425.53 320.93 423.79
  C 319.12 422.24 316.89 421.22 315.48 419.28
  C 313.62 416.73 310.93 415.46 309.13 412.95
  C 307.44 410.61 304.95 409.51 303.29 407.23
  Q 301.72 405.07 299.51 403.52
  C 296.96 401.73 295.59 398.97 293.07 397.02
  Q 291.10 395.49 289.48 393.39
  C 287.94 391.41 285.76 390.40 284.28 388.37
  Q 282.82 386.38 280.82 384.89
  C 278.48 383.15 277.17 380.63 274.77 378.84
  C 272.07 376.82 270.58 374.09 267.96 371.93
  Q 266.45 370.67 265.04 369.15
  Q 259.71 363.39 254.09 361.10
  Z"
/>
<path fill="#44c6ac" d="
  M 275.18 433.82
  L 257.94 451.35
  A 10.62 10.62 0.0 0 1 242.96 451.51
  L 226.59 435.56
  A 10.62 10.62 0.0 0 1 226.43 420.51
  L 243.81 402.83
  A 10.62 10.62 0.0 0 1 258.86 402.74
  L 275.08 418.84
  A 10.62 10.62 0.0 0 1 275.18 433.82
  Z"
/>
</svg>
